# Blender 4.5.1 LTS
# www.blender.org
o Plane
v 0.000000 -0.647948 -0.000000
v -0.000000 -16.846645 -0.000000
v 0.068519 -1.295896 -0.068519
v 0.144444 -2.499228 -0.144444
v 0.277778 -3.748842 -0.277778
v 0.444444 -4.998456 -0.444445
v 0.533333 -6.248070 -0.533333
v 0.600000 -7.497683 -0.600000
v 0.633333 -8.747296 -0.633334
v 0.544445 -9.996911 -0.544445
v 0.466667 -11.246524 -0.466667
v 0.388889 -12.496140 -0.388889
v 0.266667 -13.745753 -0.266667
v 0.144444 -14.995366 -0.144445
v 0.068519 -16.198700 -0.068519
v 0.068519 -16.198700 0.068518
v 0.144444 -14.995366 0.144444
v 0.266667 -13.745753 0.266667
v 0.388889 -12.496140 0.388889
v 0.466667 -11.246525 0.466667
v 0.544444 -9.996911 0.544444
v 0.633333 -8.747297 0.633333
v 0.600000 -7.497684 0.600000
v 0.533333 -6.248070 0.533333
v 0.444444 -4.998456 0.444444
v 0.277778 -3.748842 0.277778
v 0.144444 -2.499228 0.144444
v 0.068519 -1.295896 0.068519
v -0.068519 -1.295896 0.068519
v -0.144444 -2.499228 0.144444
v -0.277778 -3.748842 0.277778
v -0.444444 -4.998456 0.444444
v -0.533333 -6.248069 0.533333
v -0.600000 -7.497683 0.600000
v -0.633333 -8.747297 0.633333
v -0.544445 -9.996911 0.544444
v -0.466667 -11.246526 0.466667
v -0.388889 -12.496138 0.388889
v -0.266667 -13.745753 0.266667
v -0.144444 -14.995368 0.144444
v -0.068519 -16.198700 0.068518
v -0.068519 -16.198700 -0.068519
v -0.144444 -14.995366 -0.144445
v -0.266667 -13.745753 -0.266667
v -0.388889 -12.496140 -0.388889
v -0.466667 -11.246525 -0.466667
v -0.544444 -9.996911 -0.544445
v -0.633333 -8.747297 -0.633334
v -0.600000 -7.497684 -0.600000
v -0.533333 -6.248070 -0.533333
v -0.444444 -4.998456 -0.444445
v -0.277778 -3.748842 -0.277778
v -0.144444 -2.499228 -0.144444
v -0.068519 -1.295896 -0.068519
v -0.037269 -16.673090 -0.037269
v -0.037269 -16.673090 0.037268
v 0.037269 -16.673090 0.037268
v 0.037269 -16.673090 -0.037269
v 0.101620 -1.880206 -0.101620
v 0.202778 -3.124035 -0.202778
v 0.365278 -4.373649 -0.365278
v 0.497222 -5.623263 -0.497222
v 0.566667 -6.872877 -0.566667
v 0.629167 -8.122490 -0.629167
v 0.597222 -9.372105 -0.597222
v 0.501389 -10.621716 -0.501389
v 0.431944 -11.871331 -0.431945
v 0.331944 -13.120947 -0.331945
v 0.201389 -14.370559 -0.201389
v 0.101620 -15.614388 -0.101621
v 0.101620 -15.614388 0.101620
v 0.201389 -14.370559 0.201389
v 0.331944 -13.120947 0.331944
v 0.431944 -11.871331 0.431944
v 0.501389 -10.621716 0.501389
v 0.597222 -9.372105 0.597222
v 0.629167 -8.122491 0.629167
v 0.566667 -6.872877 0.566667
v 0.497222 -5.623263 0.497222
v 0.365278 -4.373649 0.365278
v 0.202778 -3.124035 0.202778
v 0.101620 -1.880206 0.101620
v -0.037269 -0.821505 0.037269
v -0.101620 -1.880206 0.101620
v -0.202778 -3.124035 0.202778
v -0.365278 -4.373649 0.365278
v -0.497222 -5.623262 0.497222
v -0.566667 -6.872876 0.566667
v -0.629167 -8.122491 0.629167
v -0.597222 -9.372104 0.597222
v -0.501389 -10.621718 0.501389
v -0.431944 -11.871332 0.431944
v -0.331944 -13.120946 0.331944
v -0.201389 -14.370561 0.201389
v -0.101620 -15.614388 0.101620
v -0.101620 -15.614388 -0.101621
v -0.201389 -14.370559 -0.201389
v -0.331944 -13.120947 -0.331945
v -0.431944 -11.871331 -0.431945
v -0.501389 -10.621716 -0.501389
v -0.597222 -9.372105 -0.597222
v -0.629167 -8.122491 -0.629167
v -0.566667 -6.872877 -0.566667
v -0.497222 -5.623263 -0.497222
v -0.365278 -4.373649 -0.365278
v -0.202778 -3.124035 -0.202778
v -0.101620 -1.880206 -0.101620
v -0.000000 -1.307466 0.095833
v 0.000000 -2.499228 0.198611
v 0.000000 -3.748842 0.381944
v 0.000000 -4.998456 0.611111
v 0.000000 -6.248070 0.733333
v 0.000000 -7.497683 0.825000
v -0.000000 -8.747297 0.870833
v 0.000000 -9.996912 0.748611
v -0.000000 -11.246525 0.641667
v 0.000000 -12.496139 0.534722
v 0.000000 -13.745752 0.366667
v -0.000000 -14.995366 0.198611
v 0.000000 -16.187128 0.095833
v 0.000000 -1.307466 -0.095833
v -0.000000 -2.499228 -0.198611
v -0.000000 -3.748842 -0.381945
v 0.000000 -4.998456 -0.611111
v 0.000000 -6.248070 -0.733333
v 0.000000 -7.497683 -0.825000
v 0.000000 -8.747297 -0.870834
v 0.000000 -9.996912 -0.748611
v 0.000000 -11.246525 -0.641667
v -0.000000 -12.496139 -0.534722
v 0.000000 -13.745752 -0.366667
v 0.000000 -14.995366 -0.198611
v -0.000000 -16.187128 -0.095834
v -0.095833 -1.307466 -0.000000
v -0.198611 -2.499228 -0.000000
v -0.381944 -3.748842 -0.000000
v -0.611111 -4.998456 -0.000000
v -0.733333 -6.248069 -0.000000
v -0.825000 -7.497683 -0.000000
v -0.870833 -8.747297 -0.000000
v -0.748611 -9.996911 -0.000000
v -0.641667 -11.246527 -0.000000
v -0.534722 -12.496139 -0.000000
v -0.366667 -13.745754 -0.000000
v -0.198611 -14.995368 -0.000000
v -0.095833 -16.187128 -0.000000
v 0.095833 -1.307466 -0.000000
v 0.198611 -2.499228 -0.000000
v 0.381944 -3.748842 -0.000000
v 0.611111 -4.998456 -0.000000
v 0.733333 -6.248069 -0.000000
v 0.825000 -7.497684 -0.000000
v 0.870833 -8.747298 -0.000000
v 0.748611 -9.996911 -0.000000
v 0.641667 -11.246526 -0.000000
v 0.534722 -12.496139 -0.000000
v 0.366667 -13.745752 -0.000000
v 0.198611 -14.995366 -0.000000
v 0.095833 -16.187128 -0.000000
v 0.037269 -0.821505 0.037269
v -0.037269 -0.821505 -0.037269
v 0.037269 -0.821505 -0.037269
v 0.062587 -16.594265 -0.000000
v -0.062587 -16.594265 -0.000000
v 0.000000 -16.594263 -0.062587
v -0.000000 -16.594263 0.062587
v -0.000000 -0.900329 0.062587
v 0.000000 -1.881652 0.139931
v -0.000000 -3.124035 0.278819
v -0.000000 -4.373649 0.502257
v 0.000000 -5.623262 0.683681
v 0.000000 -6.872876 0.779167
v -0.000000 -8.122490 0.865104
v 0.000000 -9.372104 0.821181
v -0.000000 -10.621716 0.689410
v -0.000000 -11.871330 0.593924
v -0.000000 -13.120946 0.456424
v 0.000000 -14.370559 0.276910
v -0.000000 -15.612942 0.139930
v 0.000000 -0.900329 -0.062587
v -0.000000 -1.881652 -0.139931
v 0.000000 -3.124035 -0.278820
v 0.000000 -4.373649 -0.502257
v -0.000000 -5.623262 -0.683681
v -0.000000 -6.872876 -0.779167
v 0.000000 -8.122490 -0.865104
v -0.000000 -9.372104 -0.821181
v 0.000000 -10.621716 -0.689410
v 0.000000 -11.871330 -0.593924
v 0.000000 -13.120946 -0.456424
v 0.000000 -14.370559 -0.276910
v 0.000000 -15.612942 -0.139931
v -0.062587 -0.900329 -0.000000
v -0.139931 -1.881652 -0.000000
v -0.278819 -3.124034 -0.000000
v -0.502257 -4.373649 -0.000000
v -0.683681 -5.623262 -0.000000
v -0.779167 -6.872877 -0.000000
v -0.865104 -8.122491 -0.000000
v -0.821181 -9.372104 -0.000000
v -0.689410 -10.621718 -0.000000
v -0.593924 -11.871331 -0.000000
v -0.456424 -13.120946 -0.000000
v -0.276910 -14.370561 -0.000000
v -0.139931 -15.612942 -0.000000
v 0.062587 -0.900329 -0.000000
v 0.139931 -1.881652 -0.000000
v 0.278819 -3.124034 -0.000000
v 0.502257 -4.373649 -0.000000
v 0.683681 -5.623262 -0.000000
v 0.779167 -6.872877 -0.000000
v 0.865104 -8.122490 -0.000000
v 0.821180 -9.372104 -0.000000
v 0.689410 -10.621716 -0.000000
v 0.593924 -11.871330 -0.000000
v 0.456424 -13.120946 -0.000000
v 0.276910 -14.370559 -0.000000
v 0.139931 -15.612942 -0.000000
vn -0.0000 -1.0000 -0.0000
vn -0.0000 1.0000 -0.0000
vn -0.7046 -0.0836 0.7046
vn -0.7024 -0.1146 0.7024
vn -0.6954 -0.1815 0.6954
vn -0.6995 -0.1465 0.6995
vn -0.7049 -0.0783 0.7049
vn -0.7053 -0.0705 0.7053
vn -0.7067 0.0356 0.7067
vn -0.7030 0.1081 0.7030
vn -0.7049 0.0783 0.7049
vn -0.7027 0.1120 0.7027
vn -0.6995 0.1462 0.6995
vn -0.7026 0.1130 0.7026
vn -0.7046 0.0836 0.7046
vn -0.7046 0.0836 -0.7046
vn -0.7026 0.1130 -0.7026
vn -0.6995 0.1462 -0.6995
vn -0.7027 0.1120 -0.7027
vn -0.7049 0.0784 -0.7049
vn -0.7030 0.1081 -0.7030
vn -0.7067 0.0356 -0.7067
vn -0.7053 -0.0705 -0.7053
vn -0.7049 -0.0783 -0.7049
vn -0.6995 -0.1465 -0.6995
vn -0.6954 -0.1815 -0.6954
vn -0.7024 -0.1146 -0.7024
vn -0.7046 -0.0836 -0.7046
vn 0.7046 -0.0836 -0.7046
vn 0.7024 -0.1146 -0.7024
vn 0.6954 -0.1815 -0.6954
vn 0.6995 -0.1465 -0.6995
vn 0.7049 -0.0783 -0.7049
vn 0.7053 -0.0705 -0.7053
vn 0.7067 0.0356 -0.7067
vn 0.7030 0.1081 -0.7030
vn 0.7049 0.0784 -0.7049
vn 0.7027 0.1120 -0.7027
vn 0.6995 0.1462 -0.6995
vn 0.7026 0.1130 -0.7026
vn 0.7046 0.0836 -0.7046
vn 0.7046 0.0836 0.7046
vn 0.7026 0.1130 0.7026
vn 0.6995 0.1462 0.6995
vn 0.7027 0.1120 0.7027
vn 0.7049 0.0784 0.7049
vn 0.7030 0.1081 0.7030
vn 0.7067 0.0356 0.7067
vn 0.7053 -0.0705 0.7053
vn 0.7049 -0.0783 0.7049
vn 0.6995 -0.1465 0.6995
vn 0.6954 -0.1815 0.6954
vn 0.7024 -0.1146 0.7024
vn 0.7046 -0.0836 0.7046
vn 0.6789 0.2796 0.6789
vn 0.6789 0.2796 -0.6789
vn -0.6789 0.2796 -0.6789
vn -0.6789 0.2796 0.6789
vn -0.7043 -0.0884 0.7043
vn -0.6991 -0.1499 0.6991
vn -0.6949 -0.1849 0.6949
vn -0.7036 -0.0996 0.7036
vn -0.7051 -0.0752 0.7051
vn -0.7066 -0.0374 0.7066
vn -0.7036 0.0996 0.7036
vn -0.7044 0.0879 0.7044
vn -0.7044 0.0875 0.7044
vn -0.7005 0.1367 0.7005
vn -0.7004 0.1373 0.7004
vn -0.7043 0.0884 0.7043
vn -0.7043 0.0884 -0.7043
vn -0.7004 0.1373 -0.7004
vn -0.7005 0.1367 -0.7005
vn -0.7044 0.0875 -0.7044
vn -0.7044 0.0879 -0.7044
vn -0.7036 0.0996 -0.7036
vn -0.7066 -0.0374 -0.7066
vn -0.7051 -0.0752 -0.7051
vn -0.7036 -0.0996 -0.7036
vn -0.6949 -0.1849 -0.6949
vn -0.6991 -0.1499 -0.6991
vn -0.7043 -0.0884 -0.7043
vn 0.6789 -0.2796 -0.6789
vn 0.7043 -0.0884 -0.7043
vn 0.6991 -0.1499 -0.6991
vn 0.6949 -0.1849 -0.6949
vn 0.7036 -0.0996 -0.7036
vn 0.7051 -0.0752 -0.7051
vn 0.7066 -0.0374 -0.7066
vn 0.7036 0.0996 -0.7036
vn 0.7044 0.0879 -0.7044
vn 0.7044 0.0875 -0.7044
vn 0.7005 0.1367 -0.7005
vn 0.7004 0.1373 -0.7004
vn 0.7043 0.0884 -0.7043
vn 0.7043 0.0884 0.7043
vn 0.7004 0.1373 0.7004
vn 0.7005 0.1367 0.7005
vn 0.7044 0.0875 0.7044
vn 0.7044 0.0879 0.7044
vn 0.7036 0.0996 0.7036
vn 0.7066 -0.0374 0.7066
vn 0.7051 -0.0752 0.7051
vn 0.7036 -0.0996 0.7036
vn 0.6949 -0.1849 0.6949
vn 0.6991 -0.1499 0.6991
vn 0.7043 -0.0884 0.7043
vn -0.0000 -0.0819 -0.9966
vn -0.0000 -0.1114 -0.9938
vn -0.0000 -0.1765 -0.9843
vn -0.0000 -0.1427 -0.9898
vn -0.0000 -0.0761 -0.9971
vn -0.0000 -0.0685 -0.9976
vn -0.0000 0.0347 -0.9994
vn -0.0000 0.1051 -0.9945
vn -0.0000 0.0762 -0.9971
vn -0.0000 0.1090 -0.9940
vn -0.0000 0.1422 -0.9898
vn -0.0000 0.1099 -0.9939
vn -0.0000 0.0819 -0.9966
vn -0.0000 -0.0819 0.9966
vn -0.0000 -0.1114 0.9938
vn -0.0000 -0.1765 0.9843
vn -0.0000 -0.1427 0.9898
vn -0.0000 -0.0761 0.9971
vn -0.0000 -0.0685 0.9976
vn -0.0000 0.0347 0.9994
vn -0.0000 0.1051 0.9945
vn -0.0000 0.0762 0.9971
vn -0.0000 0.1090 0.9940
vn -0.0000 0.1422 0.9898
vn -0.0000 0.1099 0.9939
vn -0.0000 0.0819 0.9966
vn 0.9966 -0.0819 -0.0000
vn 0.9938 -0.1114 -0.0000
vn 0.9843 -0.1765 -0.0000
vn 0.9898 -0.1427 -0.0000
vn 0.9971 -0.0761 -0.0000
vn 0.9976 -0.0685 -0.0000
vn 0.9994 0.0347 -0.0000
vn 0.9945 0.1051 -0.0000
vn 0.9971 0.0762 -0.0000
vn 0.9940 0.1090 -0.0000
vn 0.9898 0.1422 -0.0000
vn 0.9939 0.1099 -0.0000
vn 0.9966 0.0819 -0.0000
vn -0.9966 -0.0819 -0.0000
vn -0.9938 -0.1114 -0.0000
vn -0.9843 -0.1765 -0.0000
vn -0.9898 -0.1427 -0.0000
vn -0.9971 -0.0761 -0.0000
vn -0.9976 -0.0685 -0.0000
vn -0.9994 0.0347 -0.0000
vn -0.9945 0.1051 -0.0000
vn -0.9971 0.0762 -0.0000
vn -0.9940 0.1090 -0.0000
vn -0.9898 0.1422 -0.0000
vn -0.9939 0.1099 -0.0000
vn -0.9966 0.0819 -0.0000
vn -0.6789 -0.2796 -0.6789
vn 0.6789 -0.2796 0.6789
vn -0.6789 -0.2796 0.6789
vn -0.9939 0.1104 -0.0000
vn 0.9939 0.1104 -0.0000
vn -0.0000 0.1104 0.9939
vn -0.0000 0.1104 -0.9939
vn -0.0000 -0.1104 -0.9939
vn -0.0000 -0.0862 -0.9963
vn -0.0000 -0.1457 -0.9893
vn -0.0000 -0.1800 -0.9837
vn -0.0000 -0.0969 -0.9953
vn -0.0000 -0.0732 -0.9973
vn -0.0000 -0.0364 -0.9993
vn -0.0000 0.0969 -0.9953
vn -0.0000 0.0854 -0.9963
vn -0.0000 0.0851 -0.9964
vn -0.0000 0.1330 -0.9911
vn -0.0000 0.1335 -0.9910
vn -0.0000 0.0862 -0.9963
vn -0.0000 -0.1104 0.9939
vn -0.0000 -0.0862 0.9963
vn -0.0000 -0.1457 0.9893
vn -0.0000 -0.1800 0.9837
vn -0.0000 -0.0969 0.9953
vn -0.0000 -0.0732 0.9973
vn -0.0000 -0.0364 0.9993
vn -0.0000 0.0969 0.9953
vn -0.0000 0.0854 0.9963
vn -0.0000 0.0851 0.9964
vn -0.0000 0.1330 0.9911
vn -0.0000 0.1335 0.9910
vn -0.0000 0.0862 0.9963
vn 0.9939 -0.1104 -0.0000
vn 0.9963 -0.0862 -0.0000
vn 0.9893 -0.1457 -0.0000
vn 0.9837 -0.1800 -0.0000
vn 0.9953 -0.0969 -0.0000
vn 0.9973 -0.0732 -0.0000
vn 0.9993 -0.0364 -0.0000
vn 0.9953 0.0969 -0.0000
vn 0.9963 0.0854 -0.0000
vn 0.9964 0.0851 -0.0000
vn 0.9911 0.1330 -0.0000
vn 0.9910 0.1335 -0.0000
vn 0.9963 0.0862 -0.0000
vn -0.9939 -0.1104 -0.0000
vn -0.9963 -0.0862 -0.0000
vn -0.9893 -0.1457 -0.0000
vn -0.9837 -0.1800 -0.0000
vn -0.9953 -0.0969 -0.0000
vn -0.9973 -0.0732 -0.0000
vn -0.9993 -0.0364 -0.0000
vn -0.9953 0.0969 -0.0000
vn -0.9963 0.0854 -0.0000
vn -0.9964 0.0851 -0.0000
vn -0.9911 0.1330 -0.0000
vn -0.9910 0.1335 -0.0000
vn -0.9963 0.0862 -0.0000
vt 1.000000 0.000000
vt 1.000000 0.500000
vt 1.000000 0.333333
vt 1.000000 1.000000
vt 0.000000 1.000000
vt 0.003472 0.554398
vt 0.000000 0.673611
vt 0.000000 1.000000
vt 0.000000 0.000000
vt 0.000000 0.500000
vt 0.003472 0.554398
vt 0.500000 1.000000
vt 0.666667 1.000000
vt 0.452546 0.003472
vt 0.326389 0.000000
vt 1.000000 0.000000
vt 0.500000 0.000000
vt 0.673611 0.000000
vt 0.550926 0.006944
vt 0.550926 0.006944
vt 0.550926 0.006944
vt 0.504630 0.034722
vt 0.153935 0.151620
vt 0.848380 0.153935
vt 0.833333 0.166667
vt 0.500000 0.041667
vt 0.166667 0.166667
vt 0.166667 0.166667
vt 0.500000 0.041667
vt 0.833333 0.166667
vt 0.833333 0.166667
vt 0.833333 0.166667
vt 0.166667 0.166667
vt 0.500000 0.041667
vt 0.503472 0.038194
vt 0.847222 0.152778
vt 1.000000 0.000000
vt 0.517361 0.024306
vt 0.520833 0.020833
vt 0.517361 0.024306
vt 0.506944 0.034722
vt 0.861111 0.138889
vt 0.517361 0.024306
vt 0.512731 0.017361
vt 0.151620 0.153935
vt 0.326389 1.000000
vt 0.449074 0.993056
vt 1.000000 1.000000
vt 0.449074 0.993056
vt 0.449074 0.993056
vt 0.495370 0.965278
vt 0.846065 0.848380
vt 0.151620 0.846065
vt 0.166667 0.833333
vt 0.500000 0.958333
vt 0.833333 0.833333
vt 0.833333 0.833333
vt 0.500000 0.958333
vt 0.833333 0.833333
vt 0.166667 0.833333
vt 0.166667 0.833333
vt 0.500000 0.958333
vt 0.500000 0.965278
vt 0.847222 0.847222
vt 0.152778 0.847222
vt 0.000000 1.000000
vt 0.500000 1.000000
vt 1.000000 1.000000
vt 0.486111 0.986111
vt 0.861111 0.861111
vt 0.500000 0.972222
vt 0.861111 0.861111
vt 0.138889 0.861111
vt 0.000000 0.326389
vt 0.006944 0.449074
vt 0.006944 0.449074
vt 0.006944 0.449074
vt 0.034722 0.495370
vt 0.041667 0.500000
vt 0.041667 0.500000
vt 0.041667 0.500000
vt 0.038194 0.503472
vt 0.024306 0.517361
vt 0.020833 0.520833
vt 0.024306 0.517361
vt 0.034722 0.506944
vt 0.017361 0.521991
vt 1.000000 0.673611
vt 0.993056 0.550926
vt 0.993056 0.550926
vt 0.965278 0.504630
vt 0.958333 0.500000
vt 0.958333 0.500000
vt 0.958333 0.500000
vt 0.965278 0.500000
vt 1.000000 0.500000
vt 0.986111 0.486111
vt 0.972222 0.500000
s 1
f 16/1/16 159/2/159 163/3/163 57/1/57
f 15/4/15 58/2/58 163/3/163 159/2/159
f 2/1/2 57/1/57 163/3/163 58/2/58
f 42/5/42 146/6/146 164/7/164 55/8/55
f 41/9/41 56/10/56 164/7/164 146/11/146
f 2/8/2 55/8/55 164/7/164 56/10/56
f 15/4/15 133/12/133 165/13/165 58/4/58
f 42/8/42 55/12/55 165/13/165 133/12/133
f 2/4/2 58/4/58 165/13/165 55/12/55
f 41/9/41 120/14/120 166/15/166 56/9/56
f 16/16/16 57/17/57 166/15/166 120/14/120
f 2/9/2 56/9/56 166/15/166 57/17/57
f 1/1/1 160/1/160 167/18/167 83/17/83
f 28/16/28 108/19/108 167/18/167 160/1/160
f 29/9/29 83/17/83 167/18/167 108/20/108
f 29/9/29 108/21/108 168/22/168 84/23/84
f 108/21/108 28/16/28 82/24/82 168/22/168
f 168/22/168 82/24/82 27/25/27 109/26/109
f 84/23/84 168/22/168 109/26/109 30/27/30
f 30/28/30 109/26/109 169/29/169 85/28/85
f 109/26/109 27/30/27 81/31/81 169/29/169
f 169/29/169 81/31/81 26/32/26 110/29/110
f 85/28/85 169/29/169 110/29/110 31/33/31
f 31/33/31 110/34/110 170/35/170 86/33/86
f 110/34/110 26/32/26 80/36/80 170/35/170
f 170/35/170 80/36/80 25/37/25 111/38/111
f 86/33/86 170/35/170 111/38/111 32/28/32
f 32/28/32 111/38/111 171/39/171 87/28/87
f 111/38/111 25/37/25 79/16/79 171/39/171
f 171/39/171 79/16/79 24/16/24 112/40/112
f 87/28/87 171/39/171 112/40/112 33/27/33
f 33/27/33 112/40/112 172/41/172 88/27/88
f 112/40/112 24/16/24 78/42/78 172/41/172
f 172/41/172 78/42/78 23/37/23 113/43/113
f 88/27/88 172/41/172 113/43/113 34/28/34
f 34/28/34 113/43/113 173/39/173 89/28/89
f 113/43/113 23/37/23 77/16/77 173/39/173
f 173/39/173 77/16/77 22/16/22 114/40/114
f 89/28/89 173/39/173 114/40/114 35/27/35
f 35/27/35 114/40/114 174/41/174 90/27/90
f 114/40/114 22/16/22 76/42/76 174/41/174
f 174/41/174 76/42/76 21/37/21 115/43/115
f 90/27/90 174/41/174 115/43/115 36/28/36
f 36/28/36 115/43/115 175/39/175 91/28/91
f 115/43/115 21/37/21 75/16/75 175/39/175
f 175/39/175 75/16/75 20/16/20 116/40/116
f 91/28/91 175/39/175 116/40/116 37/27/37
f 37/27/37 116/40/116 176/41/176 92/27/92
f 116/40/116 20/16/20 74/42/74 176/41/176
f 176/41/176 74/42/74 19/37/19 117/43/117
f 92/27/92 176/41/176 117/43/117 38/28/38
f 38/28/38 117/43/117 177/39/177 93/28/93
f 117/43/117 19/37/19 73/16/73 177/39/177
f 177/39/177 73/16/73 18/16/18 118/40/118
f 93/28/93 177/39/177 118/40/118 39/27/39
f 39/27/39 118/40/118 178/41/178 94/27/94
f 118/40/118 18/16/18 72/42/72 178/41/178
f 178/41/178 72/42/72 17/37/17 119/43/119
f 94/27/94 178/41/178 119/43/119 40/28/40
f 40/28/40 119/43/119 179/44/179 95/45/95
f 119/43/119 17/37/17 71/16/71 179/44/179
f 179/44/179 71/16/71 16/16/16 120/14/120
f 95/45/95 179/44/179 120/14/120 41/9/41
f 1/8/1 161/8/161 180/46/180 162/12/162
f 54/5/54 121/47/121 180/46/180 161/8/161
f 3/48/3 162/12/162 180/46/180 121/49/121
f 3/48/3 121/50/121 181/51/181 59/52/59
f 121/50/121 54/5/54 107/53/107 181/51/181
f 181/51/181 107/53/107 53/54/53 122/55/122
f 59/52/59 181/51/181 122/55/122 4/56/4
f 4/57/4 122/55/122 182/58/182 60/59/60
f 122/55/122 53/60/53 106/60/106 182/58/182
f 182/58/182 106/60/106 52/61/52 123/55/123
f 60/59/60 182/58/182 123/55/123 5/59/5
f 5/59/5 123/62/123 183/63/183 61/64/61
f 123/62/123 52/61/52 105/65/105 183/63/183
f 183/63/183 105/65/105 51/66/51 124/67/124
f 61/64/61 183/63/183 124/67/124 6/68/6
f 6/68/6 124/67/124 184/69/184 62/70/62
f 124/67/124 51/5/51 104/5/104 184/69/184
f 184/69/184 104/5/104 50/8/50 125/12/125
f 62/70/62 184/69/184 125/12/125 7/48/7
f 7/48/7 125/12/125 185/71/185 63/72/63
f 125/12/125 50/5/50 103/73/103 185/71/185
f 185/71/185 103/73/103 49/66/49 126/67/126
f 63/72/63 185/71/185 126/67/126 8/68/8
f 8/68/8 126/67/126 186/69/186 64/70/64
f 126/67/126 49/5/49 102/5/102 186/69/186
f 186/69/186 102/5/102 48/8/48 127/12/127
f 64/70/64 186/69/186 127/12/127 9/48/9
f 9/48/9 127/12/127 187/71/187 65/72/65
f 127/12/127 48/5/48 101/73/101 187/71/187
f 187/71/187 101/73/101 47/66/47 128/67/128
f 65/72/65 187/71/187 128/67/128 10/68/10
f 10/68/10 128/67/128 188/69/188 66/70/66
f 128/67/128 47/5/47 100/5/100 188/69/188
f 188/69/188 100/5/100 46/8/46 129/12/129
f 66/70/66 188/69/188 129/12/129 11/48/11
f 11/48/11 129/12/129 189/71/189 67/72/67
f 129/12/129 46/5/46 99/73/99 189/71/189
f 189/71/189 99/73/99 45/66/45 130/67/130
f 67/72/67 189/71/189 130/67/130 12/68/12
f 12/68/12 130/67/130 190/69/190 68/70/68
f 130/67/130 45/5/45 98/5/98 190/69/190
f 190/69/190 98/5/98 44/8/44 131/12/131
f 68/70/68 190/69/190 131/12/131 13/48/13
f 13/48/13 131/12/131 191/71/191 69/72/69
f 131/12/131 44/5/44 97/73/97 191/71/191
f 191/71/191 97/73/97 43/66/43 132/67/132
f 69/72/69 191/71/191 132/67/132 14/68/14
f 14/68/14 132/67/132 192/69/192 70/70/70
f 132/67/132 43/5/43 96/5/96 192/69/192
f 192/69/192 96/5/96 42/8/42 133/12/133
f 70/70/70 192/69/192 133/12/133 15/48/15
f 1/9/1 83/9/83 193/74/193 161/10/161
f 29/9/29 134/75/134 193/74/193 83/9/83
f 54/5/54 161/10/161 193/74/193 134/76/134
f 54/5/54 134/77/134 194/78/194 107/53/107
f 134/77/134 29/9/29 84/23/84 194/78/194
f 194/78/194 84/23/84 30/27/30 135/79/135
f 107/53/107 194/78/194 135/79/135 53/54/53
f 53/60/53 135/79/135 195/80/195 106/60/106
f 135/79/135 30/28/30 85/28/85 195/80/195
f 195/80/195 85/28/85 31/33/31 136/80/136
f 106/60/106 195/80/195 136/80/136 52/61/52
f 52/61/52 136/81/136 196/82/196 105/65/105
f 136/81/136 31/33/31 86/33/86 196/82/196
f 196/82/196 86/33/86 32/28/32 137/83/137
f 105/65/105 196/82/196 137/83/137 51/66/51
f 51/66/51 137/83/137 197/84/197 104/5/104
f 137/83/137 32/28/32 87/28/87 197/84/197
f 197/84/197 87/28/87 33/27/33 138/85/138
f 104/5/104 197/84/197 138/85/138 50/5/50
f 50/5/50 138/85/138 198/86/198 103/73/103
f 138/85/138 33/27/33 88/27/88 198/86/198
f 198/86/198 88/27/88 34/28/34 139/83/139
f 103/73/103 198/86/198 139/83/139 49/66/49
f 49/66/49 139/83/139 199/84/199 102/5/102
f 139/83/139 34/28/34 89/28/89 199/84/199
f 199/84/199 89/28/89 35/27/35 140/85/140
f 102/5/102 199/84/199 140/85/140 48/5/48
f 48/5/48 140/85/140 200/86/200 101/73/101
f 140/85/140 35/27/35 90/27/90 200/86/200
f 200/86/200 90/27/90 36/28/36 141/83/141
f 101/73/101 200/86/200 141/83/141 47/66/47
f 47/66/47 141/83/141 201/84/201 100/5/100
f 141/83/141 36/28/36 91/28/91 201/84/201
f 201/84/201 91/28/91 37/27/37 142/85/142
f 100/5/100 201/84/201 142/85/142 46/5/46
f 46/5/46 142/85/142 202/86/202 99/73/99
f 142/85/142 37/27/37 92/27/92 202/86/202
f 202/86/202 92/27/92 38/28/38 143/83/143
f 99/73/99 202/86/202 143/83/143 45/66/45
f 45/66/45 143/83/143 203/84/203 98/5/98
f 143/83/143 38/28/38 93/28/93 203/84/203
f 203/84/203 93/28/93 39/27/39 144/85/144
f 98/5/98 203/84/203 144/85/144 44/5/44
f 44/5/44 144/85/144 204/86/204 97/73/97
f 144/85/144 39/27/39 94/27/94 204/86/204
f 204/86/204 94/27/94 40/28/40 145/83/145
f 97/73/97 204/86/204 145/83/145 43/66/43
f 43/66/43 145/83/145 205/87/205 96/5/96
f 145/83/145 40/28/40 95/45/95 205/87/205
f 205/87/205 95/45/95 41/9/41 146/6/146
f 96/5/96 205/87/205 146/6/146 42/5/42
f 1/4/1 162/4/162 206/88/206 160/2/160
f 3/48/3 147/89/147 206/88/206 162/4/162
f 28/16/28 160/2/160 206/88/206 147/89/147
f 28/16/28 147/90/147 207/91/207 82/24/82
f 147/90/147 3/48/3 59/52/59 207/91/207
f 207/91/207 59/52/59 4/56/4 148/92/148
f 82/24/82 207/91/207 148/92/148 27/25/27
f 27/30/27 148/92/148 208/93/208 81/31/81
f 148/92/148 4/57/4 60/59/60 208/93/208
f 208/93/208 60/59/60 5/59/5 149/92/149
f 81/31/81 208/93/208 149/92/149 26/32/26
f 26/32/26 149/94/149 209/95/209 80/36/80
f 149/94/149 5/59/5 61/64/61 209/95/209
f 209/95/209 61/64/61 6/68/6 150/96/150
f 80/36/80 209/95/209 150/96/150 25/37/25
f 25/16/25 150/96/150 210/97/210 79/16/79
f 150/96/150 6/68/6 62/70/62 210/97/210
f 210/97/210 62/70/62 7/48/7 151/2/151
f 79/16/79 210/97/210 151/2/151 24/1/24
f 24/16/24 151/2/151 211/98/211 78/42/78
f 151/2/151 7/48/7 63/72/63 211/98/211
f 211/98/211 63/72/63 8/68/8 152/96/152
f 78/42/78 211/98/211 152/96/152 23/37/23
f 23/16/23 152/96/152 212/97/212 77/16/77
f 152/96/152 8/68/8 64/70/64 212/97/212
f 212/97/212 64/70/64 9/48/9 153/2/153
f 77/16/77 212/97/212 153/2/153 22/1/22
f 22/16/22 153/2/153 213/98/213 76/42/76
f 153/2/153 9/48/9 65/72/65 213/98/213
f 213/98/213 65/72/65 10/68/10 154/96/154
f 76/42/76 213/98/213 154/96/154 21/37/21
f 21/16/21 154/96/154 214/97/214 75/16/75
f 154/96/154 10/68/10 66/70/66 214/97/214
f 214/97/214 66/70/66 11/48/11 155/2/155
f 75/16/75 214/97/214 155/2/155 20/1/20
f 20/16/20 155/2/155 215/98/215 74/42/74
f 155/2/155 11/48/11 67/72/67 215/98/215
f 215/98/215 67/72/67 12/68/12 156/96/156
f 74/42/74 215/98/215 156/96/156 19/37/19
f 19/16/19 156/96/156 216/97/216 73/16/73
f 156/96/156 12/68/12 68/70/68 216/97/216
f 216/97/216 68/70/68 13/48/13 157/2/157
f 73/16/73 216/97/216 157/2/157 18/1/18
f 18/16/18 157/2/157 217/98/217 72/42/72
f 157/2/157 13/48/13 69/72/69 217/98/217
f 217/98/217 69/72/69 14/68/14 158/96/158
f 72/42/72 217/98/217 158/96/158 17/37/17
f 17/16/17 158/96/158 218/97/218 71/16/71
f 158/96/158 14/68/14 70/70/70 218/97/218
f 218/97/218 70/70/70 15/48/15 159/2/159
f 71/16/71 218/97/218 159/2/159 16/1/16
