# Blender 4.5.1 LTS
# www.blender.org
o ThirdEye
v 0.033374 0.106905 0.131528
v 0.033603 0.070922 0.121909
v -0.000000 0.106124 0.132919
v -0.000000 0.069056 0.125232
v -0.033374 0.106905 0.131528
v -0.033603 0.070922 0.121909
v 0.033488 0.088476 0.129650
v -0.000000 0.087554 0.131291
v -0.033489 0.088476 0.129650
vn 0.0475 -0.0941 0.9944
vn -0.0475 -0.0941 0.9944
vn -0.0836 -0.3560 0.9307
vn 0.0836 -0.3560 0.9307
vt 0.497901 0.491134
vt 0.045479 0.491134
vt 0.048992 0.982834
vt 0.499720 0.982834
vt 0.950384 0.982834
vt 0.950384 0.491134
vt 0.496082 -0.000567
vt 0.950384 -0.000567
vt 0.041967 -0.000567
s 0
f 8/1/1 7/2/1 1/3/1 3/4/1
f 8/1/2 3/4/2 5/5/2 9/6/2
f 4/7/3 8/1/3 9/6/3 6/8/3
f 4/7/4 2/9/4 7/2/4 8/1/4
